<svg xmlns="http://www.w3.org/2000/svg" width="12.104" height="16" viewBox="0 0 12.104 16">
  <path id="Icon_awesome-calendar-week" data-name="Icon awesome-calendar-week" d="M0,14.5A1.41,1.41,0,0,0,1.3,16h9.51a1.41,1.41,0,0,0,1.3-1.5V6H0Zm1.729-6A.471.471,0,0,1,2.161,8H9.942a.471.471,0,0,1,.432.5v2a.471.471,0,0,1-.432.5H2.161a.471.471,0,0,1-.432-.5ZM10.807,2H9.51V.5A.471.471,0,0,0,9.078,0H8.213a.471.471,0,0,0-.432.5V2H4.323V.5A.471.471,0,0,0,3.891,0H3.026a.471.471,0,0,0-.432.5V2H1.3A1.41,1.41,0,0,0,0,3.5V5H12.1V3.5A1.41,1.41,0,0,0,10.807,2Z" fill="#28236e"/>
</svg>
